<svg width="187" height="61" viewBox="0 0 187 61" fill="none" xmlns="http://www.w3.org/2000/svg">
<path d="M181.878 32.5315L172.73 11.4045L163.54 32.5315H158.618L170.186 5.86633H175.232L186.8 32.5315H181.878Z" fill="white"/>
<path d="M150.402 32.5315V13.3736H154.914V32.5315H150.402ZM150.402 5.86633H154.914V10.3789H150.402V5.86633Z" fill="white"/>
<path d="M138.897 5.86633H143.409V32.5315H138.897V21.4552L124.908 26.2139V32.5315H120.395V5.86633H124.908V21.4552L138.897 16.6965V5.86633Z" fill="white"/>
<path d="M95.5391 6.52271C94.8827 6.24922 94.24 5.9894 93.611 5.74326C93.0093 5.49712 92.394 5.27833 91.7649 5.08689C91.1359 4.89545 90.4659 4.7587 89.7548 4.67666C89.0711 4.56726 88.3053 4.51256 87.4575 4.51256C86.1721 4.51256 85.0371 4.71768 84.0526 5.12791C83.068 5.5108 82.2339 5.94838 81.5501 6.44066C80.8938 6.93294 80.3878 7.39787 80.0323 7.83545C79.6767 8.24568 79.4853 8.46447 79.4579 8.49182L75.7248 5.9894C75.7522 5.96205 75.8752 5.79796 76.094 5.49712C76.3402 5.16894 76.682 4.78605 77.1196 4.34847C77.5845 3.88354 78.1452 3.40493 78.8016 2.91265C79.4579 2.39302 80.21 1.92809 81.0579 1.51786C81.933 1.08028 82.8902 0.724745 83.9295 0.451255C84.9961 0.150418 86.1721 0 87.4575 0C88.5241 0 89.495 0.0683721 90.3701 0.205116C91.2727 0.34186 92.1068 0.519628 92.8726 0.73842C93.6657 0.957211 94.4178 1.20335 95.1288 1.47684C95.8673 1.75033 96.592 2.03749 97.3031 2.33833C98.2876 2.74856 99.3269 3.17247 100.421 3.61005C101.515 4.02028 102.787 4.40317 104.236 4.7587C105.686 5.08689 107.367 5.36038 109.282 5.57917C111.196 5.77061 113.466 5.86633 116.092 5.86633V10.3789C112.755 10.3789 109.897 10.2148 107.518 9.88661V32.5315H103.005V9.06615C101.392 8.68326 99.9969 8.27303 98.8209 7.83545C97.6449 7.39787 96.551 6.96029 95.5391 6.52271ZM87.5395 17.599L82.3706 32.5315H77.5709L85.1602 10.7071H89.9189L97.5082 32.5315H92.7495L87.5395 17.599Z" fill="white"/>
<path d="M64.0172 5.86633C65.3573 5.86633 66.6016 6.11247 67.7503 6.60475C68.9263 7.09703 69.9519 7.76708 70.827 8.61489C71.7022 9.46271 72.3859 10.4609 72.8782 11.6096C73.3978 12.7582 73.6576 13.9753 73.6576 15.2607C73.6576 16.5461 73.3978 17.7631 72.8782 18.9117C72.3859 20.0604 71.7022 21.0586 70.827 21.9064C69.9519 22.7543 68.9263 23.4243 67.7503 23.9166C66.6016 24.4089 65.3573 24.655 64.0172 24.655H56.8381V32.5315H52.3255V20.1424H64.0172C64.7282 20.1424 65.3846 20.0194 65.9863 19.7732C66.6153 19.4997 67.1623 19.1442 67.6272 18.7066C68.0921 18.269 68.4614 17.7494 68.7348 17.1477C69.0083 16.5461 69.1451 15.917 69.1451 15.2607C69.1451 14.5769 69.0083 13.9479 68.7348 13.3736C68.4614 12.7719 68.0921 12.2523 67.6272 11.8147C67.1623 11.3771 66.6153 11.0353 65.9863 10.7891C65.3846 10.5156 64.7282 10.3789 64.0172 10.3789H52.3255V5.86633H64.0172Z" fill="white"/>
<path d="M46.9996 13.1685L40.9691 19.1989L46.9996 25.2293L43.7997 28.3881L37.7693 22.3987L31.7799 28.3881L28.5801 25.2293L34.6105 19.1989L28.5801 13.1685L31.7799 10.0097L37.7693 15.9991L43.7997 10.0097L46.9996 13.1685Z" fill="#1397BF"/>
<path d="M11.7327 32.9827C10.1191 32.9827 8.60122 32.6819 7.17908 32.0802C5.75694 31.4785 4.51256 30.6718 3.44596 29.6598C2.37935 28.6206 1.53154 27.4036 0.902512 26.0088C0.300837 24.614 0 23.1371 0 21.5783V5.86633H4.51256V21.5783C4.51256 22.5355 4.704 23.438 5.08689 24.2858C5.46977 25.1063 5.9894 25.831 6.64577 26.46C7.30215 27.089 8.06791 27.5813 8.94308 27.9369C9.81824 28.2924 10.7481 28.4702 11.7327 28.4702C12.7172 28.4702 13.6471 28.2924 14.5222 27.9369C15.3974 27.5813 16.1632 27.089 16.8195 26.46C17.4759 25.831 17.9955 25.1063 18.3784 24.2858C18.7613 23.438 18.9528 22.5355 18.9528 21.5783V5.86633H23.4653V21.5783C23.4653 23.1371 23.1508 24.614 22.5218 26.0088C21.9201 27.4036 21.086 28.6206 20.0194 29.6598C18.9528 30.6718 17.7084 31.4785 16.2862 32.0802C14.8641 32.6819 13.3462 32.9827 11.7327 32.9827Z" fill="white"/>
<path d="M131.066 53.5802C131.066 53.4224 131.029 53.2891 130.954 53.1802C130.882 53.0675 130.789 52.9774 130.672 52.9098C130.556 52.8384 130.426 52.7877 130.283 52.7577C130.141 52.7239 130.002 52.707 129.866 52.707C129.716 52.707 129.577 52.7239 129.45 52.7577C129.326 52.7915 129.219 52.8403 129.128 52.9041C129.038 52.968 128.967 53.0469 128.914 53.1408C128.866 53.2309 128.841 53.3323 128.841 53.445C128.841 53.6403 128.899 53.7961 129.016 53.9126C129.136 54.0253 129.335 54.1304 129.613 54.2281L130.734 54.6224C131.215 54.7839 131.566 55.0036 131.788 55.2816C132.009 55.5595 132.12 55.8919 132.12 56.2787C132.12 56.5379 132.067 56.7764 131.962 56.9942C131.861 57.2083 131.714 57.3923 131.523 57.5463C131.335 57.6965 131.108 57.813 130.841 57.8956C130.574 57.982 130.278 58.0252 129.951 58.0252C129.497 58.0252 129.127 57.9519 128.841 57.8055C128.556 57.659 128.336 57.4656 128.182 57.2252H127.596V56.2562H128.762C128.762 56.4177 128.796 56.5567 128.864 56.6731C128.935 56.7858 129.027 56.8778 129.14 56.9491C129.256 57.0205 129.386 57.0731 129.528 57.1069C129.675 57.1407 129.823 57.1576 129.974 57.1576C130.12 57.1576 130.261 57.1407 130.396 57.1069C130.531 57.0693 130.65 57.0167 130.751 56.9491C130.856 56.8778 130.939 56.7933 130.999 56.6956C131.059 56.598 131.089 56.4872 131.089 56.3632C131.089 56.1754 131.027 56.0158 130.903 55.8844C130.783 55.7529 130.576 55.6346 130.283 55.5294L129.168 55.1126C128.713 54.9511 128.375 54.7464 128.154 54.4985C127.936 54.2468 127.827 53.9332 127.827 53.5577C127.827 53.3098 127.872 53.0807 127.962 52.8703C128.056 52.66 128.19 52.4797 128.362 52.3295C128.539 52.1755 128.753 52.0553 129.005 51.969C129.256 51.8826 129.543 51.8394 129.866 51.8394C130.283 51.8394 130.633 51.8976 130.914 52.014C131.196 52.1305 131.45 52.3295 131.675 52.6112H132.221V53.5802H131.066Z" fill="white"/>
<path d="M126.486 53.2478H125.416V52.8872C125.292 52.8872 125.164 52.9117 125.033 52.9605C124.905 53.0056 124.785 53.0769 124.672 53.1746C124.56 53.2685 124.46 53.3905 124.374 53.5408C124.291 53.6872 124.231 53.8619 124.193 54.0647V56.8815H125.185V57.8505H122.289V56.8815H123.095L123.1 52.983H122.289V52.014H124.154V52.8196C124.222 52.6995 124.297 52.5887 124.379 52.4873C124.466 52.3821 124.56 52.292 124.661 52.2168C124.766 52.138 124.881 52.0779 125.005 52.0366C125.132 51.9915 125.269 51.969 125.416 51.969C125.611 51.969 125.795 51.969 125.968 51.969C126.141 51.969 126.313 51.9727 126.486 51.9802V53.2478Z" fill="white"/>
<path d="M116.655 55.0675C116.655 55.2327 116.667 55.3849 116.689 55.5238C116.716 55.659 116.751 55.7886 116.796 55.9125C116.935 56.2881 117.157 56.5717 117.461 56.7632C117.769 56.951 118.116 57.0449 118.503 57.0449C118.808 57.0449 119.102 57.0036 119.388 56.921C119.677 56.8346 119.979 56.7013 120.295 56.521L120.717 57.2365C120.334 57.4994 119.949 57.6947 119.562 57.8224C119.176 57.9501 118.774 58.0139 118.357 58.0139C117.962 58.0139 117.596 57.9482 117.258 57.8167C116.924 57.6853 116.635 57.49 116.391 57.2308C116.15 56.9717 115.961 56.6487 115.822 56.2618C115.686 55.875 115.619 55.4243 115.619 54.9097C115.619 54.4928 115.677 54.1004 115.794 53.7323C115.91 53.3605 116.083 53.0375 116.312 52.7633C116.545 52.4854 116.832 52.2657 117.174 52.1042C117.516 51.9427 117.914 51.8619 118.368 51.8619C118.808 51.8619 119.174 51.9295 119.467 52.0647C119.763 52.1962 120.004 52.3727 120.188 52.5943C120.376 52.8121 120.516 53.0619 120.61 53.3436C120.708 53.6253 120.776 53.9126 120.813 54.2055C120.832 54.3483 120.843 54.4928 120.847 54.6393C120.854 54.7858 120.858 54.9285 120.858 55.0675H116.655ZM118.295 52.7408C118.051 52.7408 117.837 52.7765 117.653 52.8478C117.472 52.9154 117.318 53.0149 117.191 53.1464C117.063 53.2741 116.96 53.4318 116.881 53.6196C116.806 53.8074 116.749 54.0177 116.712 54.2506H119.737C119.722 54.0328 119.686 53.8318 119.63 53.6478C119.577 53.4638 119.495 53.3041 119.382 53.1689C119.269 53.0337 119.125 52.9286 118.948 52.8534C118.772 52.7783 118.554 52.7408 118.295 52.7408Z" fill="white"/>
<path d="M104.115 52.014H105.974V52.6957H105.985C106.113 52.5868 106.246 52.4854 106.385 52.3915C106.528 52.2938 106.676 52.2093 106.83 52.138C106.984 52.0666 107.144 52.0103 107.309 51.969C107.478 51.9276 107.653 51.907 107.833 51.907C108.254 51.907 108.616 51.9859 108.92 52.1436C109.225 52.2976 109.459 52.5398 109.625 52.8703C109.767 52.7426 109.918 52.6206 110.075 52.5042C110.233 52.384 110.396 52.2807 110.565 52.1943C110.738 52.1079 110.918 52.0384 111.106 51.9859C111.294 51.9333 111.489 51.907 111.692 51.907C112.008 51.907 112.291 51.9502 112.543 52.0366C112.795 52.1229 113.009 52.2544 113.185 52.4309C113.362 52.6074 113.495 52.8347 113.585 53.1126C113.679 53.3868 113.726 53.7116 113.726 54.0872V56.8815H114.537V57.8505H111.81V56.8815H112.633V54.2168C112.633 53.7699 112.52 53.4318 112.295 53.2027C112.07 52.9699 111.745 52.8534 111.32 52.8534C111.069 52.8534 110.811 52.9135 110.549 53.0337C110.286 53.1539 110.06 53.306 109.873 53.49V56.8815H110.678V57.8505H107.957V56.8815H108.78V54.2168C108.78 53.7699 108.665 53.4318 108.436 53.2027C108.211 52.9699 107.886 52.8534 107.461 52.8534C107.217 52.8534 106.971 52.9117 106.723 53.0281C106.475 53.1445 106.241 53.2891 106.019 53.4619V56.8815H106.842V57.8505H104.115V56.8815H104.926V52.983H104.115V52.014Z" fill="white"/>
<path d="M97.1291 54.9323C97.1328 54.4703 97.2061 54.0497 97.3488 53.6703C97.4953 53.291 97.6981 52.9661 97.9572 52.6957C98.2164 52.4215 98.5244 52.2112 98.8812 52.0647C99.238 51.9183 99.6304 51.845 100.059 51.845C100.491 51.845 100.885 51.9183 101.242 52.0647C101.602 52.2112 101.91 52.4197 102.166 52.6901C102.421 52.9567 102.62 53.2797 102.763 53.6591C102.906 54.0384 102.977 54.459 102.977 54.921C102.977 55.3755 102.906 55.7942 102.763 56.1773C102.62 56.5567 102.421 56.8834 102.166 57.1576C101.91 57.4318 101.602 57.6458 101.242 57.7998C100.885 57.9501 100.491 58.0252 100.059 58.0252C99.6192 58.0252 99.2211 57.9501 98.8643 57.7998C98.5075 57.6496 98.2014 57.4393 97.946 57.1689C97.6906 56.8947 97.4915 56.5679 97.3488 56.1886C97.2061 55.8093 97.1328 55.3905 97.1291 54.9323ZM98.2389 54.9323C98.2389 55.2665 98.2859 55.5689 98.3798 55.8393C98.4774 56.1097 98.6089 56.3407 98.7741 56.5322C98.9431 56.72 99.1366 56.8665 99.3544 56.9717C99.576 57.0731 99.8107 57.1238 100.059 57.1238C100.318 57.1238 100.558 57.0731 100.78 56.9717C101.005 56.8703 101.2 56.7257 101.366 56.5379C101.531 56.3463 101.66 56.1154 101.754 55.8449C101.848 55.5745 101.895 55.2703 101.895 54.9323C101.895 54.5792 101.848 54.2656 101.754 53.9915C101.66 53.7173 101.531 53.4882 101.366 53.3041C101.204 53.1201 101.011 52.9811 100.785 52.8872C100.56 52.7934 100.318 52.7464 100.059 52.7464C99.8107 52.7464 99.576 52.7934 99.3544 52.8872C99.1366 52.9811 98.9431 53.1201 98.7741 53.3041C98.6089 53.4882 98.4774 53.7173 98.3798 53.9915C98.2859 54.2656 98.2389 54.5792 98.2389 54.9323Z" fill="white"/>
<path d="M94.6052 52.014H95.9742V52.8647H94.5939L94.577 56.2337C94.577 56.4628 94.6033 56.6487 94.6559 56.7914C94.7085 56.9341 94.793 57.0336 94.9094 57.09C95.0258 57.1426 95.1573 57.1689 95.3038 57.1689C95.4615 57.1689 95.6005 57.1557 95.7207 57.1294C95.8409 57.0994 95.9723 57.0505 96.115 56.9829L96.3573 57.6872C96.177 57.781 95.9873 57.8543 95.7883 57.9069C95.5892 57.9632 95.3545 57.9914 95.0841 57.9914C94.8287 57.9914 94.6052 57.9594 94.4137 57.8956C94.2259 57.8355 94.0662 57.7322 93.9348 57.5857C93.8071 57.4393 93.7113 57.244 93.6475 56.9998C93.5836 56.752 93.5517 56.444 93.5517 56.0759L93.5686 52.8647H92.639V52.014H93.5799V50.6169L94.6052 50.1324V52.014Z" fill="white"/>
<path d="M90.6841 53.5802C90.6841 53.4224 90.6466 53.2891 90.5715 53.1802C90.5001 53.0675 90.4062 52.9774 90.2898 52.9098C90.1734 52.8384 90.0438 52.7877 89.9011 52.7577C89.7583 52.7239 89.6194 52.707 89.4842 52.707C89.3339 52.707 89.195 52.7239 89.0673 52.7577C88.9433 52.7915 88.8363 52.8403 88.7462 52.9041C88.656 52.968 88.5847 53.0469 88.5321 53.1408C88.4832 53.2309 88.4588 53.3323 88.4588 53.445C88.4588 53.6403 88.5171 53.7961 88.6335 53.9126C88.7537 54.0253 88.9527 54.1304 89.2307 54.2281L90.3518 54.6224C90.8325 54.7839 91.1837 55.0036 91.4053 55.2816C91.6268 55.5595 91.7376 55.8919 91.7376 56.2787C91.7376 56.5379 91.6851 56.7764 91.5799 56.9942C91.4785 57.2083 91.332 57.3923 91.1405 57.5463C90.9527 57.6965 90.7255 57.813 90.4588 57.8956C90.1921 57.982 89.8954 58.0252 89.5687 58.0252C89.1142 58.0252 88.7443 57.9519 88.4588 57.8055C88.1734 57.659 87.9537 57.4656 87.7997 57.2252H87.2138V56.2562H88.38C88.38 56.4177 88.4138 56.5567 88.4814 56.6731C88.5527 56.7858 88.6447 56.8778 88.7574 56.9491C88.8739 57.0205 89.0034 57.0731 89.1461 57.1069C89.2926 57.1407 89.441 57.1576 89.5912 57.1576C89.7377 57.1576 89.8785 57.1407 90.0137 57.1069C90.1489 57.0693 90.2673 57.0167 90.3687 56.9491C90.4738 56.8778 90.5564 56.7933 90.6165 56.6956C90.6766 56.598 90.7067 56.4872 90.7067 56.3632C90.7067 56.1754 90.6447 56.0158 90.5208 55.8844C90.4006 55.7529 90.194 55.6346 89.9011 55.5294L88.7856 55.1126C88.3311 54.9511 87.9931 54.7464 87.7715 54.4985C87.5537 54.2468 87.4448 53.9332 87.4448 53.5577C87.4448 53.3098 87.4898 53.0807 87.58 52.8703C87.6739 52.66 87.8072 52.4797 87.98 52.3295C88.1565 52.1755 88.3706 52.0553 88.6222 51.969C88.8739 51.8826 89.1612 51.8394 89.4842 51.8394C89.9011 51.8394 90.2504 51.8976 90.532 52.014C90.8137 52.1305 91.0672 52.3295 91.2926 52.6112H91.8391V53.5802H90.6841Z" fill="white"/>
<path d="M83.2251 52.014H85.1068V56.8815H85.7547V57.8505H84.0533V57.3097C83.7904 57.5125 83.5031 57.6702 83.1913 57.7829C82.8834 57.8956 82.5529 57.9519 82.1998 57.9519C81.9069 57.9519 81.6402 57.9106 81.3998 57.828C81.1632 57.7416 80.9604 57.6102 80.7914 57.4336C80.6261 57.2534 80.4984 57.0261 80.4083 56.752C80.3182 56.4778 80.2731 56.151 80.2731 55.7717V52.983H79.4844V52.014H81.366V55.6478C81.366 56.0947 81.4693 56.4327 81.6759 56.6618C81.8824 56.8909 82.1792 57.0055 82.566 57.0055C82.7951 57.0055 83.0355 56.9642 83.2871 56.8815C83.5425 56.7989 83.7829 56.6844 84.0082 56.5379V52.983H83.2251V52.014Z" fill="white"/>
<path d="M77.6253 53.5689C77.4675 53.2872 77.2666 53.0807 77.0224 52.9492C76.7821 52.8178 76.5023 52.752 76.183 52.752C75.9389 52.752 75.7098 52.8027 75.4957 52.9041C75.2816 53.0056 75.0938 53.1501 74.9323 53.3379C74.7746 53.5257 74.6488 53.7548 74.5549 54.0252C74.4648 54.2919 74.4197 54.5905 74.4197 54.921C74.4197 55.2478 74.4648 55.5426 74.5549 55.8055C74.6488 56.0684 74.7765 56.2937 74.938 56.4815C75.0995 56.6656 75.2854 56.8083 75.4957 56.9097C75.7098 57.0074 75.9389 57.0562 76.183 57.0562C76.5436 57.0562 76.8572 56.9698 77.1239 56.797C77.3905 56.6205 77.6027 56.3632 77.7605 56.0252L78.628 56.4534C78.5154 56.6937 78.3764 56.9097 78.2112 57.1012C78.0459 57.2928 77.8581 57.4562 77.6478 57.5914C77.4412 57.7266 77.2121 57.8299 76.9605 57.9012C76.7126 57.9763 76.4497 58.0139 76.1718 58.0139C75.7661 58.0139 75.3906 57.9388 75.045 57.7886C74.7032 57.6346 74.4065 57.4205 74.1549 57.1463C73.907 56.8721 73.7136 56.5454 73.5746 56.1661C73.4357 55.7867 73.3662 55.3717 73.3662 54.921C73.3662 54.4703 73.4394 54.0553 73.5859 53.676C73.7324 53.2966 73.9333 52.9717 74.1887 52.7013C74.4441 52.4272 74.7427 52.2131 75.0845 52.0591C75.4262 51.9051 75.7924 51.8281 76.183 51.8281C76.5511 51.8281 76.8985 51.892 77.2253 52.0197C77.5558 52.1474 77.845 52.3408 78.0928 52.5999H78.6844V53.5689H77.6253Z" fill="white"/>
<path d="M68.3973 57.3379C68.2057 57.5407 67.9822 57.6984 67.7268 57.8111C67.4752 57.9238 67.1879 57.9801 66.8649 57.9801C66.4705 57.9801 66.1025 57.9125 65.7607 57.7773C65.4227 57.6383 65.1278 57.4374 64.8762 57.1745C64.6283 56.9078 64.433 56.583 64.2903 56.1999C64.1513 55.813 64.0818 55.3717 64.0818 54.8759C64.0818 54.4252 64.1495 54.0159 64.2847 53.6478C64.4199 53.276 64.6114 52.9605 64.8593 52.7013C65.1072 52.4384 65.4058 52.2356 65.7551 52.0929C66.1043 51.9464 66.4931 51.8732 66.9212 51.8732C67.2142 51.8732 67.4771 51.907 67.7099 51.9746C67.9466 52.0384 68.1757 52.1511 68.3973 52.3126V52.014H69.4451V57.6195C69.4451 58.5435 69.2254 59.2421 68.786 59.7153C68.3503 60.1885 67.6705 60.4251 66.7466 60.4251C66.5438 60.4251 66.3316 60.4101 66.11 60.3801C65.8884 60.35 65.6687 60.3012 65.4508 60.2336C65.2368 60.1697 65.0264 60.0871 64.8199 59.9857C64.617 59.8843 64.4293 59.7604 64.2565 59.6139L64.8199 58.7632C64.9325 58.8608 65.0602 58.951 65.203 59.0336C65.3494 59.1162 65.5053 59.1857 65.6705 59.2421C65.8358 59.3021 66.0067 59.3491 66.1832 59.3829C66.3597 59.4167 66.5363 59.4336 66.7128 59.4336C67.002 59.4336 67.2517 59.4036 67.4621 59.3435C67.6761 59.2834 67.8508 59.1763 67.986 59.0223C68.125 58.8721 68.2282 58.6674 68.2958 58.4083C68.3635 58.1491 68.3973 57.8205 68.3973 57.4224V57.3379ZM67.0001 57.0674C67.1729 57.0674 67.3306 57.0505 67.4733 57.0167C67.6161 56.9829 67.7456 56.9398 67.8621 56.8872C67.9785 56.8308 68.0799 56.767 68.1663 56.6956C68.2564 56.6243 68.3334 56.5491 68.3973 56.4703V53.276C68.2057 53.107 67.9841 52.9849 67.7325 52.9098C67.4846 52.8347 67.2292 52.7971 66.9663 52.7971C66.7184 52.7971 66.4856 52.8441 66.2677 52.938C66.0499 53.0281 65.8583 53.1614 65.6931 53.3379C65.5316 53.5145 65.4039 53.7304 65.31 53.9858C65.2161 54.2412 65.1692 54.5342 65.1692 54.8647C65.1692 55.2252 65.2142 55.5426 65.3044 55.8168C65.3945 56.0909 65.5203 56.3219 65.6818 56.5097C65.8433 56.6937 66.0367 56.8327 66.2621 56.9266C66.4874 57.0205 66.7334 57.0674 67.0001 57.0674Z" fill="white"/>
<path d="M60.2735 56.8815H61.096V54.2168C61.096 53.7699 60.9814 53.4318 60.7523 53.2027C60.527 52.9699 60.2021 52.8534 59.7777 52.8534C59.5336 52.8534 59.2876 52.9117 59.0397 53.0281C58.7918 53.1445 58.5571 53.2891 58.3355 53.4619V56.8815H59.158V57.8505H56.4313V56.8815H57.2426V52.983H56.4313V52.014H58.2904V52.7013H58.3017C58.4256 52.5924 58.5571 52.4891 58.696 52.3915C58.8388 52.2938 58.9871 52.2093 59.1411 52.138C59.2951 52.0666 59.4547 52.0103 59.62 51.969C59.789 51.9276 59.9655 51.907 60.1495 51.907C60.4613 51.907 60.743 51.9502 60.9946 52.0366C61.2462 52.1229 61.4603 52.2544 61.6368 52.4309C61.8134 52.6074 61.9486 52.8347 62.0425 53.1126C62.1401 53.3868 62.1889 53.7116 62.1889 54.0872V56.8815H63.0002V57.8505H60.2735V56.8815Z" fill="white"/>
<path d="M52.6793 52.014H54.5834V56.8815H55.4623V57.8505H52.6905V56.8815H53.5243V52.983H52.6793V52.014ZM53.3271 49.9465C53.3271 49.8488 53.3459 49.7568 53.3835 49.6704C53.4248 49.5803 53.4774 49.5033 53.5412 49.4394C53.6088 49.3718 53.6877 49.3192 53.7778 49.2817C53.868 49.2404 53.9637 49.2197 54.0651 49.2197C54.1628 49.2197 54.2548 49.2404 54.3412 49.2817C54.4313 49.3192 54.5083 49.3718 54.5722 49.4394C54.6398 49.5033 54.6924 49.5803 54.7299 49.6704C54.7712 49.7568 54.7919 49.8488 54.7919 49.9465C54.7919 50.0479 54.7712 50.1436 54.7299 50.2338C54.6924 50.3239 54.6398 50.4047 54.5722 50.476C54.5083 50.5436 54.4313 50.5981 54.3412 50.6394C54.2548 50.677 54.1628 50.6957 54.0651 50.6957C53.9637 50.6957 53.868 50.677 53.7778 50.6394C53.6877 50.5981 53.6088 50.5436 53.5412 50.476C53.4774 50.4047 53.4248 50.3239 53.3835 50.2338C53.3459 50.1436 53.3271 50.0479 53.3271 49.9465Z" fill="white"/>
<path d="M50.1216 52.014H51.4906V52.8647H50.1103L50.0934 56.2337C50.0934 56.4628 50.1197 56.6487 50.1723 56.7914C50.2249 56.9341 50.3094 57.0336 50.4258 57.09C50.5422 57.1426 50.6737 57.1689 50.8201 57.1689C50.9779 57.1689 51.1169 57.1557 51.237 57.1294C51.3572 57.0994 51.4887 57.0505 51.6314 56.9829L51.8736 57.6872C51.6934 57.781 51.5037 57.8543 51.3046 57.9069C51.1056 57.9632 50.8709 57.9914 50.6004 57.9914C50.345 57.9914 50.1216 57.9594 49.93 57.8956C49.7422 57.8355 49.5826 57.7322 49.4512 57.5857C49.3235 57.4393 49.2277 57.244 49.1638 56.9998C49.1 56.752 49.0681 56.444 49.0681 56.0759L49.085 52.8647H48.1554V52.014H49.0962V50.6169L50.1216 50.1324V52.014Z" fill="white"/>
<path d="M45.5526 57.3097C45.331 57.5163 45.085 57.6853 44.8146 57.8167C44.548 57.9482 44.2437 58.0139 43.902 58.0139C43.6165 58.0139 43.3536 57.9688 43.1133 57.8787C42.8766 57.7886 42.6719 57.6665 42.4992 57.5125C42.3264 57.3548 42.1912 57.1726 42.0936 56.966C41.9997 56.7595 41.9527 56.5398 41.9527 56.3069C41.9527 56.059 41.9884 55.8393 42.0598 55.6478C42.1349 55.4562 42.2325 55.291 42.3527 55.152C42.4766 55.0093 42.6194 54.891 42.7809 54.7971C42.9461 54.6994 43.117 54.6224 43.2935 54.5661C43.4738 54.506 43.656 54.4647 43.84 54.4421C44.0278 54.4159 44.2062 54.4027 44.3752 54.4027C44.6456 54.4027 44.8728 54.4121 45.0569 54.4309C45.2409 54.4459 45.408 54.4684 45.5583 54.4985L45.5639 54.0196C45.5639 53.8131 45.5339 53.6347 45.4738 53.4844C45.4137 53.3304 45.3292 53.2046 45.2203 53.107C45.1113 53.0056 44.9799 52.9304 44.8259 52.8816C44.6757 52.8328 44.5067 52.8084 44.3189 52.8084C44.1423 52.8084 43.9733 52.8215 43.8118 52.8478C43.6503 52.8703 43.4982 52.9023 43.3555 52.9436C43.2165 52.9811 43.087 53.0262 42.9668 53.0788C42.8503 53.1276 42.7508 53.1802 42.6682 53.2365L42.3245 52.5098C42.4635 52.4197 42.6156 52.337 42.7809 52.2619C42.9461 52.183 43.1189 52.1173 43.2992 52.0647C43.4832 52.0084 43.6691 51.9652 43.8569 51.9352C44.0484 51.9014 44.2362 51.8845 44.4203 51.8845C44.7583 51.8845 45.0625 51.9258 45.3329 52.0084C45.6033 52.0873 45.8324 52.2112 46.0202 52.3802C46.208 52.5492 46.3526 52.7652 46.454 53.0281C46.5554 53.2872 46.6061 53.599 46.6061 53.9633L46.6005 56.8815H47.2484V57.8505H45.5526V57.3097ZM44.133 57.1351C44.2719 57.1351 44.4109 57.1182 44.5498 57.0844C44.6888 57.0505 44.8203 57.0055 44.9442 56.9491C45.0681 56.889 45.1827 56.8214 45.2879 56.7463C45.393 56.6675 45.4813 56.5867 45.5526 56.5041L45.5583 55.1858H44.3414C44.1386 55.1858 43.9527 55.2083 43.7837 55.2534C43.6184 55.2985 43.4738 55.3642 43.3499 55.4506C43.2297 55.537 43.1358 55.644 43.0682 55.7717C43.0006 55.8994 42.9668 56.0459 42.9668 56.2111C42.9668 56.3651 42.9949 56.5003 43.0513 56.6168C43.1076 56.7294 43.1865 56.8252 43.2879 56.9041C43.3931 56.9792 43.517 57.0374 43.6597 57.0787C43.8024 57.1163 43.9602 57.1351 44.133 57.1351Z" fill="white"/>
<path d="M34.8486 52.014H36.7078V52.4985C36.9556 52.307 37.2261 52.1549 37.519 52.0422C37.812 51.9295 38.1143 51.8732 38.426 51.8732C38.8091 51.8732 39.1603 51.9445 39.4795 52.0873C39.7988 52.23 40.0729 52.4309 40.302 52.6901C40.5349 52.9492 40.7152 53.261 40.8429 53.6253C40.9706 53.9858 41.0344 54.3858 41.0344 54.8252C41.0344 55.2947 40.9631 55.7229 40.8203 56.1097C40.6776 56.4966 40.4786 56.829 40.2232 57.1069C39.9715 57.3811 39.6711 57.5951 39.3218 57.7491C38.9725 57.9031 38.5894 57.9801 38.1725 57.9801C37.8758 57.9801 37.611 57.9482 37.3782 57.8843C37.1491 57.8242 36.9293 57.7454 36.719 57.6477V59.535H37.6317V60.504H34.8599V59.535H35.6599V52.983H34.8486V52.014ZM38.15 52.7971C37.8796 52.7971 37.6185 52.8516 37.3669 52.9605C37.119 53.0694 36.9031 53.2196 36.719 53.4112V56.5717C36.843 56.6994 37.0195 56.8139 37.2486 56.9153C37.4814 57.0167 37.7706 57.0674 38.1162 57.0674C38.3565 57.0674 38.5875 57.0205 38.8091 56.9266C39.0307 56.8327 39.226 56.6937 39.395 56.5097C39.564 56.3219 39.6992 56.0909 39.8006 55.8168C39.9021 55.5426 39.9528 55.2252 39.9528 54.8647C39.9528 54.5342 39.9039 54.2412 39.8063 53.9858C39.7124 53.7304 39.5828 53.5145 39.4176 53.3379C39.2561 53.1614 39.0664 53.0281 38.8486 52.938C38.6307 52.8441 38.3979 52.7971 38.15 52.7971Z" fill="white"/>
<path d="M31.3276 52.014H33.2318V56.8815H34.1106V57.8505H31.3388V56.8815H32.1726V52.983H31.3276V52.014ZM31.9755 49.9465C31.9755 49.8488 31.9942 49.7568 32.0318 49.6704C32.0731 49.5803 32.1257 49.5033 32.1895 49.4394C32.2571 49.3718 32.336 49.3192 32.4261 49.2817C32.5163 49.2404 32.6121 49.2197 32.7135 49.2197C32.8111 49.2197 32.9031 49.2404 32.9895 49.2817C33.0797 49.3192 33.1566 49.3718 33.2205 49.4394C33.2881 49.5033 33.3407 49.5803 33.3782 49.6704C33.4196 49.7568 33.4402 49.8488 33.4402 49.9465C33.4402 50.0479 33.4196 50.1436 33.3782 50.2338C33.3407 50.3239 33.2881 50.4047 33.2205 50.476C33.1566 50.5436 33.0797 50.5981 32.9895 50.6394C32.9031 50.677 32.8111 50.6957 32.7135 50.6957C32.6121 50.6957 32.5163 50.677 32.4261 50.6394C32.336 50.5981 32.2571 50.5436 32.1895 50.476C32.1257 50.4047 32.0731 50.3239 32.0318 50.2338C31.9942 50.1436 31.9755 50.0479 31.9755 49.9465Z" fill="white"/>
<path d="M29.2882 53.5689C29.1304 53.2872 28.9295 53.0807 28.6854 52.9492C28.445 52.8178 28.1652 52.752 27.846 52.752C27.6018 52.752 27.3727 52.8027 27.1586 52.9041C26.9446 53.0056 26.7568 53.1501 26.5953 53.3379C26.4375 53.5257 26.3117 53.7548 26.2178 54.0252C26.1277 54.2919 26.0826 54.5905 26.0826 54.921C26.0826 55.2478 26.1277 55.5426 26.2178 55.8055C26.3117 56.0684 26.4394 56.2937 26.6009 56.4815C26.7624 56.6656 26.9483 56.8083 27.1586 56.9097C27.3727 57.0074 27.6018 57.0562 27.846 57.0562C28.2065 57.0562 28.5201 56.9698 28.7868 56.797C29.0534 56.6205 29.2656 56.3632 29.4234 56.0252L30.291 56.4534C30.1783 56.6937 30.0393 56.9097 29.8741 57.1012C29.7088 57.2928 29.521 57.4562 29.3107 57.5914C29.1041 57.7266 28.875 57.8299 28.6234 57.9012C28.3755 57.9763 28.1126 58.0139 27.8347 58.0139C27.4291 58.0139 27.0535 57.9388 26.7079 57.7886C26.3662 57.6346 26.0695 57.4205 25.8178 57.1463C25.5699 56.8721 25.3765 56.5454 25.2376 56.1661C25.0986 55.7867 25.0291 55.3717 25.0291 54.921C25.0291 54.4703 25.1023 54.0553 25.2488 53.676C25.3953 53.2966 25.5962 52.9717 25.8516 52.7013C26.107 52.4272 26.4056 52.2131 26.7474 52.0591C27.0892 51.9051 27.4553 51.8281 27.846 51.8281C28.214 51.8281 28.5614 51.892 28.8882 52.0197C29.2187 52.1474 29.5079 52.3408 29.7558 52.5999H30.3473V53.5689H29.2882Z" fill="white"/>
<path d="M21.3221 52.014H23.2263V56.8815H24.1052V57.8505H21.3334V56.8815H22.1672V52.983H21.3221V52.014ZM21.97 49.9465C21.97 49.8488 21.9888 49.7568 22.0263 49.6704C22.0677 49.5803 22.1202 49.5033 22.1841 49.4394C22.2517 49.3718 22.3306 49.3192 22.4207 49.2817C22.5108 49.2404 22.6066 49.2197 22.708 49.2197C22.8057 49.2197 22.8977 49.2404 22.9841 49.2817C23.0742 49.3192 23.1512 49.3718 23.2151 49.4394C23.2827 49.5033 23.3352 49.5803 23.3728 49.6704C23.4141 49.7568 23.4348 49.8488 23.4348 49.9465C23.4348 50.0479 23.4141 50.1436 23.3728 50.2338C23.3352 50.3239 23.2827 50.4047 23.2151 50.476C23.1512 50.5436 23.0742 50.5981 22.9841 50.6394C22.8977 50.677 22.8057 50.6957 22.708 50.6957C22.6066 50.6957 22.5108 50.677 22.4207 50.6394C22.3306 50.5981 22.2517 50.5436 22.1841 50.476C22.1202 50.4047 22.0677 50.3239 22.0263 50.2338C21.9888 50.1436 21.97 50.0479 21.97 49.9465Z" fill="white"/>
<path d="M18.7644 52.014H20.1334V52.8647H18.7532L18.7363 56.2337C18.7363 56.4628 18.7626 56.6487 18.8151 56.7914C18.8677 56.9341 18.9522 57.0336 19.0687 57.09C19.1851 57.1426 19.3165 57.1689 19.463 57.1689C19.6208 57.1689 19.7597 57.1557 19.8799 57.1294C20.0001 57.0994 20.1315 57.0505 20.2743 56.9829L20.5165 57.6872C20.3362 57.781 20.1466 57.8543 19.9475 57.9069C19.7485 57.9632 19.5137 57.9914 19.2433 57.9914C18.9879 57.9914 18.7644 57.9594 18.5729 57.8956C18.3851 57.8355 18.2255 57.7322 18.094 57.5857C17.9663 57.4393 17.8706 57.244 17.8067 56.9998C17.7429 56.752 17.7109 56.444 17.7109 56.0759L17.7278 52.8647H16.7983V52.014H17.7391V50.6169L18.7644 50.1324V52.014Z" fill="white"/>
<path d="M13.2209 56.8815H14.0434V54.2168C14.0434 53.7699 13.9289 53.4318 13.6997 53.2027C13.4744 52.9699 13.1495 52.8534 12.7251 52.8534C12.481 52.8534 12.235 52.9117 11.9871 53.0281C11.7392 53.1445 11.5045 53.2891 11.2829 53.4619V56.8815H12.1054V57.8505H9.37871V56.8815H10.19V52.983H9.37871V52.014H11.2378V52.7013H11.2491C11.373 52.5924 11.5045 52.4891 11.6435 52.3915C11.7862 52.2938 11.9345 52.2093 12.0885 52.138C12.2425 52.0666 12.4021 52.0103 12.5674 51.969C12.7364 51.9276 12.9129 51.907 13.0969 51.907C13.4087 51.907 13.6904 51.9502 13.942 52.0366C14.1936 52.1229 14.4077 52.2544 14.5842 52.4309C14.7608 52.6074 14.896 52.8347 14.9899 53.1126C15.0875 53.3868 15.1363 53.7116 15.1363 54.0872V56.8815H15.9476V57.8505H13.2209V56.8815Z" fill="white"/>
<path d="M5.98723 56.8815H6.69707L6.02103 54.9435H2.73659L2.07744 56.8815H2.9563V57.8505H0.184525V56.8815H0.928172L3.58727 49.3099H5.24921L7.90268 56.8815H8.759V57.8505H5.98723V56.8815ZM3.05771 54.0084H5.69427L4.36472 50.1887L3.05771 54.0084Z" fill="white"/>
<path fill-rule="evenodd" clip-rule="evenodd" d="M150.12 43.4283L0.128197 43.4283L0.128197 39.9029L150.12 39.9028L150.12 43.4283Z" fill="white"/>
</svg>
